<svg xmlns="http://www.w3.org/2000/svg" xmlns:xlink="http://www.w3.org/1999/xlink" width="1080" zoomAndPan="magnify" viewBox="0 0 810 599.999999" height="800" preserveAspectRatio="xMidYMid meet" version="1.0"><defs><filter x="0%" y="0%" width="100%" height="100%" id="8d85a68fd7"><feColorMatrix values="0 0 0 0 1 0 0 0 0 1 0 0 0 0 1 0 0 0 1 0" color-interpolation-filters="sRGB"/></filter><clipPath id="a2dc2748b8"><path d="M 109 4 L 701 4 L 701 596 L 109 596 Z M 109 4 " clip-rule="nonzero"/></clipPath><clipPath id="1102ba9b11"><path d="M 59.996094 331.417969 L 373.820312 -45.296875 L 750.535156 268.523438 L 436.710938 645.238281 Z M 59.996094 331.417969 " clip-rule="nonzero"/></clipPath><clipPath id="33ca0148cd"><path d="M 59.996094 331.417969 L 373.820312 -45.296875 L 750.535156 268.523438 L 436.710938 645.238281 Z M 59.996094 331.417969 " clip-rule="nonzero"/></clipPath><mask id="7d421ab501"><g filter="url(#8d85a68fd7)"><rect x="-81" width="972" fill="#000000" y="-60" height="719.999999" fill-opacity="0.76"/></g></mask><clipPath id="86b9d1da5d"><path d="M 5.226562 3 L 323 3 L 323 214 L 5.226562 214 Z M 5.226562 3 " clip-rule="nonzero"/></clipPath><clipPath id="c8081d81fd"><path d="M 5.226562 168 L 323 168 L 323 214 L 5.226562 214 Z M 5.226562 168 " clip-rule="nonzero"/></clipPath><clipPath id="7f581cfae0"><rect x="0" width="327" y="0" height="318"/></clipPath></defs><g clip-path="url(#a2dc2748b8)"><g clip-path="url(#1102ba9b11)"><g clip-path="url(#33ca0148cd)"><path fill="#066699" d="M 137.652344 238.199219 L 295.917969 48.214844 C 297.1875 46.691406 298.496094 45.195312 299.839844 43.734375 C 301.183594 42.273438 302.5625 40.847656 303.980469 39.453125 C 305.394531 38.058594 306.839844 36.699219 308.320312 35.378906 C 309.800781 34.054688 311.316406 32.769531 312.859375 31.523438 C 314.402344 30.273438 315.976562 29.0625 317.582031 27.894531 C 319.183594 26.722656 320.816406 25.589844 322.472656 24.5 C 324.132812 23.410156 325.816406 22.359375 327.527344 21.351562 C 329.238281 20.34375 330.972656 19.375 332.730469 18.453125 C 334.488281 17.53125 336.269531 16.652344 338.070312 15.816406 C 339.871094 14.980469 341.691406 14.1875 343.53125 13.441406 C 345.371094 12.695312 347.230469 11.996094 349.101562 11.339844 C 350.976562 10.683594 352.867188 10.074219 354.769531 9.511719 C 356.675781 8.949219 358.59375 8.4375 360.523438 7.96875 C 362.453125 7.5 364.390625 7.078125 366.34375 6.707031 C 368.292969 6.332031 370.25 6.007812 372.214844 5.730469 C 374.183594 5.453125 376.15625 5.226562 378.132812 5.046875 C 380.109375 4.863281 382.089844 4.734375 384.074219 4.652344 C 386.058594 4.566406 388.042969 4.535156 390.027344 4.546875 C 392.011719 4.5625 393.996094 4.625 395.980469 4.738281 C 397.960938 4.851562 399.941406 5.011719 401.914062 5.21875 C 403.890625 5.429688 405.859375 5.6875 407.820312 5.992188 C 409.78125 6.296875 411.734375 6.652344 413.679688 7.054688 C 415.625 7.453125 417.558594 7.902344 419.480469 8.402344 C 421.402344 8.898438 423.3125 9.441406 425.207031 10.03125 C 427.101562 10.621094 428.984375 11.257812 430.847656 11.941406 C 432.710938 12.621094 434.558594 13.351562 436.386719 14.125 C 438.21875 14.898438 440.027344 15.714844 441.8125 16.578125 C 443.601562 17.441406 445.371094 18.34375 447.113281 19.292969 C 448.859375 20.242188 450.578125 21.234375 452.273438 22.265625 C 453.96875 23.300781 455.636719 24.375 457.28125 25.488281 C 458.921875 26.605469 460.539062 27.761719 462.125 28.953125 C 463.710938 30.148438 465.265625 31.382812 466.792969 32.652344 L 656.777344 190.917969 C 658.300781 192.1875 659.796875 193.496094 661.257812 194.839844 C 662.71875 196.183594 664.144531 197.5625 665.539062 198.980469 C 666.933594 200.394531 668.292969 201.839844 669.613281 203.320312 C 670.9375 204.800781 672.222656 206.316406 673.46875 207.859375 C 674.71875 209.402344 675.929688 210.976562 677.097656 212.582031 C 678.269531 214.183594 679.402344 215.816406 680.492188 217.472656 C 681.582031 219.132812 682.632812 220.816406 683.640625 222.527344 C 684.648438 224.238281 685.613281 225.972656 686.539062 227.730469 C 687.460938 229.488281 688.339844 231.269531 689.175781 233.070312 C 690.011719 234.871094 690.804688 236.691406 691.550781 238.53125 C 692.296875 240.371094 692.996094 242.230469 693.652344 244.101562 C 694.308594 245.976562 694.914062 247.867188 695.476562 249.769531 C 696.039062 251.675781 696.554688 253.59375 697.023438 255.523438 C 697.492188 257.453125 697.914062 259.390625 698.285156 261.34375 C 698.660156 263.292969 698.984375 265.25 699.261719 267.214844 C 699.539062 269.183594 699.765625 271.15625 699.945312 273.132812 C 700.125 275.109375 700.257812 277.089844 700.339844 279.074219 C 700.425781 281.058594 700.457031 283.042969 700.445312 285.027344 C 700.429688 287.011719 700.367188 288.996094 700.253906 290.980469 C 700.140625 292.960938 699.980469 294.941406 699.773438 296.914062 C 699.5625 298.890625 699.304688 300.859375 699 302.820312 C 698.695312 304.78125 698.339844 306.734375 697.9375 308.679688 C 697.535156 310.625 697.085938 312.558594 696.589844 314.480469 C 696.09375 316.402344 695.550781 318.3125 694.960938 320.207031 C 694.371094 322.101562 693.734375 323.984375 693.050781 325.847656 C 692.367188 327.710938 691.640625 329.558594 690.867188 331.386719 C 690.09375 333.21875 689.277344 335.027344 688.414062 336.8125 C 687.550781 338.601562 686.648438 340.371094 685.699219 342.113281 C 684.75 343.859375 683.757812 345.578125 682.726562 347.273438 C 681.691406 348.96875 680.617188 350.636719 679.503906 352.28125 C 678.386719 353.921875 677.230469 355.539062 676.039062 357.125 C 674.84375 358.710938 673.609375 360.265625 672.339844 361.792969 L 514.074219 551.777344 C 512.800781 553.300781 511.496094 554.796875 510.152344 556.257812 C 508.808594 557.71875 507.425781 559.144531 506.011719 560.539062 C 504.597656 561.933594 503.152344 563.292969 501.671875 564.613281 C 500.1875 565.9375 498.675781 567.222656 497.132812 568.46875 C 495.589844 569.71875 494.015625 570.929688 492.410156 572.097656 C 490.808594 573.269531 489.175781 574.402344 487.515625 575.492188 C 485.859375 576.582031 484.171875 577.632812 482.464844 578.640625 C 480.753906 579.648438 479.019531 580.613281 477.261719 581.539062 C 475.503906 582.460938 473.722656 583.339844 471.921875 584.175781 C 470.121094 585.011719 468.300781 585.804688 466.460938 586.550781 C 464.621094 587.296875 462.761719 587.996094 460.886719 588.652344 C 459.015625 589.308594 457.125 589.914062 455.21875 590.476562 C 453.316406 591.039062 451.398438 591.554688 449.46875 592.023438 C 447.539062 592.492188 445.601562 592.914062 443.648438 593.285156 C 441.699219 593.660156 439.742188 593.984375 437.773438 594.261719 C 435.808594 594.539062 433.835938 594.765625 431.859375 594.945312 C 429.882812 595.125 427.902344 595.257812 425.917969 595.339844 C 423.933594 595.425781 421.949219 595.457031 419.964844 595.445312 C 417.976562 595.429688 415.996094 595.367188 414.011719 595.253906 C 412.03125 595.140625 410.050781 594.980469 408.078125 594.773438 C 406.101562 594.5625 404.132812 594.304688 402.171875 594 C 400.210938 593.695312 398.257812 593.339844 396.3125 592.9375 C 394.367188 592.535156 392.433594 592.085938 390.511719 591.589844 C 388.589844 591.09375 386.679688 590.550781 384.785156 589.960938 C 382.886719 589.371094 381.007812 588.734375 379.144531 588.050781 C 377.277344 587.367188 375.433594 586.640625 373.605469 585.867188 C 371.773438 585.09375 369.964844 584.277344 368.175781 583.414062 C 366.386719 582.550781 364.621094 581.648438 362.878906 580.699219 C 361.132812 579.75 359.414062 578.757812 357.71875 577.726562 C 356.023438 576.691406 354.355469 575.617188 352.710938 574.503906 C 351.066406 573.386719 349.453125 572.230469 347.867188 571.039062 C 346.28125 569.84375 344.726562 568.609375 343.199219 567.339844 L 153.214844 409.074219 C 151.691406 407.800781 150.195312 406.496094 148.734375 405.152344 C 147.273438 403.804688 145.847656 402.425781 144.453125 401.011719 C 143.058594 399.597656 141.699219 398.152344 140.378906 396.671875 C 139.054688 395.1875 137.769531 393.675781 136.523438 392.132812 C 135.273438 390.589844 134.0625 389.015625 132.894531 387.410156 C 131.722656 385.808594 130.589844 384.175781 129.5 382.515625 C 128.410156 380.859375 127.359375 379.171875 126.351562 377.464844 C 125.34375 375.753906 124.375 374.019531 123.453125 372.261719 C 122.53125 370.503906 121.652344 368.722656 120.816406 366.921875 C 119.980469 365.121094 119.1875 363.300781 118.441406 361.460938 C 117.695312 359.621094 116.996094 357.761719 116.339844 355.886719 C 115.683594 354.015625 115.074219 352.125 114.511719 350.21875 C 113.949219 348.316406 113.4375 346.398438 112.96875 344.46875 C 112.5 342.539062 112.078125 340.601562 111.707031 338.648438 C 111.332031 336.699219 111.007812 334.742188 110.730469 332.773438 C 110.453125 330.808594 110.226562 328.835938 110.046875 326.859375 C 109.863281 324.882812 109.734375 322.902344 109.652344 320.917969 C 109.566406 318.933594 109.535156 316.949219 109.546875 314.964844 C 109.5625 312.976562 109.625 310.996094 109.738281 309.011719 C 109.851562 307.03125 110.011719 305.050781 110.21875 303.078125 C 110.429688 301.101562 110.6875 299.132812 110.992188 297.171875 C 111.296875 295.210938 111.652344 293.257812 112.054688 291.3125 C 112.453125 289.367188 112.902344 287.433594 113.402344 285.511719 C 113.898438 283.589844 114.441406 281.679688 115.03125 279.785156 C 115.621094 277.886719 116.257812 276.007812 116.941406 274.144531 C 117.621094 272.277344 118.351562 270.433594 119.125 268.605469 C 119.898438 266.773438 120.714844 264.964844 121.578125 263.175781 C 122.441406 261.390625 123.34375 259.621094 124.292969 257.878906 C 125.242188 256.132812 126.234375 254.414062 127.265625 252.71875 C 128.300781 251.023438 129.375 249.355469 130.488281 247.710938 C 131.605469 246.066406 132.761719 244.453125 133.953125 242.867188 C 135.148438 241.28125 136.382812 239.726562 137.652344 238.199219 Z M 137.652344 238.199219 " fill-opacity="1" fill-rule="nonzero"/></g></g></g><g mask="url(#7d421ab501)"><g transform="matrix(1, 0, 0, 1, 241, 152)"><g clip-path="url(#7f581cfae0)"><g clip-path="url(#86b9d1da5d)"><path fill="#f8f8ec" d="M 294.1875 213.816406 L 33.347656 213.816406 C 32.417969 213.816406 31.492188 213.769531 30.570312 213.679688 C 29.648438 213.585938 28.730469 213.449219 27.820312 213.269531 C 26.910156 213.085938 26.011719 212.859375 25.125 212.589844 C 24.238281 212.320312 23.363281 212.007812 22.507812 211.652344 C 21.648438 211.296875 20.8125 210.898438 19.996094 210.460938 C 19.175781 210.023438 18.382812 209.546875 17.609375 209.03125 C 16.839844 208.515625 16.09375 207.964844 15.378906 207.375 C 14.660156 206.785156 13.972656 206.164062 13.316406 205.507812 C 12.660156 204.851562 12.039062 204.164062 11.449219 203.449219 C 10.863281 202.730469 10.308594 201.988281 9.792969 201.214844 C 9.277344 200.445312 8.800781 199.648438 8.363281 198.832031 C 7.925781 198.011719 7.53125 197.175781 7.175781 196.320312 C 6.820312 195.460938 6.507812 194.589844 6.234375 193.703125 C 5.964844 192.8125 5.738281 191.914062 5.558594 191.003906 C 5.375 190.097656 5.238281 189.179688 5.148438 188.257812 C 5.054688 187.332031 5.007812 186.40625 5.007812 185.480469 L 5.007812 31.597656 C 5.007812 30.671875 5.054688 29.746094 5.148438 28.824219 C 5.238281 27.898438 5.375 26.984375 5.558594 26.074219 C 5.738281 25.164062 5.964844 24.265625 6.234375 23.375 C 6.507812 22.488281 6.820312 21.617188 7.175781 20.757812 C 7.53125 19.902344 7.925781 19.066406 8.363281 18.246094 C 8.800781 17.429688 9.277344 16.632812 9.792969 15.863281 C 10.308594 15.089844 10.863281 14.347656 11.449219 13.628906 C 12.039062 12.914062 12.660156 12.226562 13.316406 11.570312 C 13.972656 10.914062 14.660156 10.292969 15.378906 9.703125 C 16.09375 9.113281 16.839844 8.5625 17.609375 8.046875 C 18.382812 7.53125 19.175781 7.054688 19.996094 6.617188 C 20.8125 6.179688 21.648438 5.78125 22.507812 5.425781 C 23.363281 5.070312 24.238281 4.757812 25.125 4.488281 C 26.011719 4.21875 26.910156 3.992188 27.820312 3.8125 C 28.730469 3.628906 29.648438 3.492188 30.570312 3.398438 C 31.492188 3.308594 32.417969 3.261719 33.347656 3.261719 L 294.1875 3.261719 C 295.117188 3.261719 296.042969 3.308594 296.964844 3.398438 C 297.886719 3.492188 298.804688 3.628906 299.714844 3.8125 C 300.625 3.992188 301.523438 4.21875 302.410156 4.488281 C 303.296875 4.757812 304.171875 5.070312 305.027344 5.425781 C 305.882812 5.78125 306.722656 6.179688 307.539062 6.617188 C 308.359375 7.054688 309.152344 7.53125 309.925781 8.046875 C 310.695312 8.5625 311.441406 9.113281 312.15625 9.703125 C 312.875 10.292969 313.558594 10.914062 314.214844 11.570312 C 314.871094 12.226562 315.496094 12.914062 316.082031 13.628906 C 316.671875 14.347656 317.222656 15.089844 317.742188 15.863281 C 318.257812 16.632812 318.734375 17.429688 319.171875 18.246094 C 319.609375 19.066406 320.003906 19.902344 320.359375 20.757812 C 320.714844 21.617188 321.027344 22.488281 321.296875 23.375 C 321.570312 24.265625 321.792969 25.164062 321.976562 26.074219 C 322.15625 26.984375 322.292969 27.898438 322.386719 28.824219 C 322.476562 29.746094 322.523438 30.671875 322.527344 31.597656 L 322.527344 185.46875 C 322.523438 186.398438 322.480469 187.324219 322.386719 188.246094 C 322.296875 189.171875 322.160156 190.085938 321.976562 190.996094 C 321.796875 191.90625 321.570312 192.808594 321.300781 193.695312 C 321.03125 194.582031 320.71875 195.457031 320.363281 196.3125 C 320.007812 197.167969 319.609375 198.007812 319.171875 198.824219 C 318.734375 199.644531 318.257812 200.4375 317.742188 201.210938 C 317.226562 201.984375 316.675781 202.726562 316.085938 203.445312 C 315.5 204.160156 314.875 204.847656 314.21875 205.503906 C 313.5625 206.160156 312.878906 206.785156 312.160156 207.371094 C 311.441406 207.960938 310.699219 208.515625 309.925781 209.03125 C 309.15625 209.546875 308.359375 210.023438 307.542969 210.460938 C 306.722656 210.898438 305.886719 211.296875 305.03125 211.652344 C 304.171875 212.007812 303.300781 212.320312 302.414062 212.589844 C 301.523438 212.859375 300.625 213.085938 299.714844 213.265625 C 298.804688 213.449219 297.886719 213.585938 296.964844 213.679688 C 296.042969 213.769531 295.117188 213.816406 294.1875 213.816406 Z M 33.347656 12.328125 C 32.714844 12.332031 32.085938 12.363281 31.457031 12.425781 C 30.832031 12.488281 30.207031 12.578125 29.589844 12.703125 C 28.96875 12.828125 28.359375 12.980469 27.753906 13.164062 C 27.152344 13.347656 26.558594 13.558594 25.976562 13.800781 C 25.394531 14.042969 24.824219 14.3125 24.265625 14.609375 C 23.710938 14.90625 23.171875 15.230469 22.644531 15.582031 C 22.121094 15.933594 21.613281 16.308594 21.128906 16.710938 C 20.640625 17.109375 20.171875 17.53125 19.726562 17.980469 C 19.28125 18.425781 18.855469 18.890625 18.457031 19.378906 C 18.054688 19.867188 17.679688 20.375 17.332031 20.898438 C 16.980469 21.421875 16.65625 21.960938 16.359375 22.519531 C 16.058594 23.074219 15.789062 23.644531 15.550781 24.226562 C 15.308594 24.8125 15.09375 25.402344 14.910156 26.007812 C 14.726562 26.609375 14.574219 27.222656 14.449219 27.839844 C 14.328125 28.460938 14.234375 29.082031 14.171875 29.710938 C 14.109375 30.339844 14.078125 30.96875 14.078125 31.597656 L 14.078125 185.46875 C 14.078125 186.101562 14.109375 186.730469 14.171875 187.359375 C 14.230469 187.988281 14.324219 188.613281 14.449219 189.230469 C 14.570312 189.851562 14.722656 190.460938 14.90625 191.066406 C 15.089844 191.671875 15.300781 192.265625 15.542969 192.847656 C 15.785156 193.429688 16.054688 194 16.351562 194.558594 C 16.648438 195.113281 16.972656 195.65625 17.324219 196.179688 C 17.675781 196.707031 18.050781 197.210938 18.449219 197.699219 C 18.851562 198.1875 19.273438 198.65625 19.71875 199.101562 C 20.167969 199.550781 20.632812 199.972656 21.121094 200.375 C 21.609375 200.773438 22.113281 201.148438 22.640625 201.5 C 23.164062 201.851562 23.707031 202.175781 24.261719 202.472656 C 24.816406 202.773438 25.386719 203.042969 25.972656 203.285156 C 26.554688 203.527344 27.148438 203.738281 27.75 203.921875 C 28.355469 204.105469 28.96875 204.261719 29.585938 204.382812 C 30.207031 204.507812 30.828125 204.601562 31.457031 204.664062 C 32.085938 204.726562 32.714844 204.757812 33.347656 204.757812 L 294.1875 204.757812 C 294.820312 204.757812 295.449219 204.726562 296.074219 204.664062 C 296.703125 204.601562 297.328125 204.507812 297.945312 204.382812 C 298.566406 204.261719 299.175781 204.109375 299.78125 203.925781 C 300.382812 203.742188 300.976562 203.527344 301.558594 203.285156 C 302.140625 203.042969 302.710938 202.773438 303.269531 202.476562 C 303.824219 202.179688 304.363281 201.855469 304.890625 201.503906 C 305.414062 201.152344 305.917969 200.777344 306.40625 200.378906 C 306.894531 199.976562 307.363281 199.554688 307.808594 199.109375 C 308.253906 198.664062 308.675781 198.195312 309.078125 197.707031 C 309.476562 197.21875 309.855469 196.714844 310.203125 196.191406 C 310.554688 195.664062 310.878906 195.125 311.175781 194.570312 C 311.472656 194.011719 311.742188 193.441406 311.984375 192.859375 C 312.226562 192.277344 312.441406 191.683594 312.625 191.078125 C 312.808594 190.476562 312.960938 189.863281 313.085938 189.246094 C 313.207031 188.628906 313.300781 188.003906 313.363281 187.375 C 313.425781 186.75 313.457031 186.121094 313.457031 185.488281 L 313.457031 31.597656 C 313.457031 30.96875 313.425781 30.339844 313.363281 29.710938 C 313.300781 29.082031 313.207031 28.460938 313.085938 27.839844 C 312.960938 27.222656 312.808594 26.609375 312.625 26.007812 C 312.441406 25.402344 312.226562 24.8125 311.984375 24.226562 C 311.742188 23.644531 311.472656 23.074219 311.175781 22.519531 C 310.878906 21.960938 310.554688 21.421875 310.203125 20.898438 C 309.855469 20.375 309.476562 19.867188 309.078125 19.378906 C 308.675781 18.890625 308.253906 18.425781 307.808594 17.980469 C 307.363281 17.53125 306.894531 17.109375 306.40625 16.710938 C 305.917969 16.308594 305.414062 15.933594 304.890625 15.582031 C 304.363281 15.230469 303.824219 14.90625 303.269531 14.609375 C 302.710938 14.3125 302.140625 14.042969 301.558594 13.800781 C 300.976562 13.558594 300.382812 13.347656 299.78125 13.164062 C 299.175781 12.980469 298.566406 12.828125 297.945312 12.703125 C 297.328125 12.578125 296.703125 12.488281 296.074219 12.425781 C 295.449219 12.363281 294.820312 12.332031 294.1875 12.328125 Z M 33.347656 12.328125 " fill-opacity="1" fill-rule="nonzero"/></g><path fill="#f8f8ec" d="M 204.535156 273.867188 L 123 273.867188 C 122.65625 273.867188 122.316406 273.832031 121.980469 273.753906 C 121.648438 273.675781 121.324219 273.5625 121.015625 273.414062 C 120.707031 273.265625 120.417969 273.082031 120.152344 272.867188 C 119.882812 272.652344 119.644531 272.410156 119.433594 272.140625 C 119.21875 271.871094 119.039062 271.578125 118.894531 271.269531 C 118.75 270.957031 118.640625 270.632812 118.566406 270.296875 C 118.492188 269.964844 118.460938 269.625 118.464844 269.28125 C 118.46875 268.9375 118.511719 268.597656 118.59375 268.265625 L 133.144531 208.203125 C 133.265625 207.710938 133.460938 207.25 133.738281 206.820312 C 134.011719 206.394531 134.351562 206.023438 134.75 205.707031 C 135.148438 205.394531 135.589844 205.152344 136.070312 204.988281 C 136.550781 204.820312 137.046875 204.738281 137.554688 204.738281 L 189.984375 204.738281 C 190.492188 204.738281 190.988281 204.820312 191.46875 204.988281 C 191.949219 205.152344 192.390625 205.394531 192.789062 205.707031 C 193.191406 206.023438 193.527344 206.394531 193.800781 206.820312 C 194.078125 207.25 194.273438 207.710938 194.394531 208.203125 L 208.945312 268.265625 C 209.027344 268.597656 209.070312 268.9375 209.074219 269.28125 C 209.082031 269.625 209.046875 269.964844 208.972656 270.300781 C 208.898438 270.636719 208.789062 270.960938 208.644531 271.269531 C 208.496094 271.582031 208.316406 271.871094 208.105469 272.140625 C 207.894531 272.410156 207.652344 272.652344 207.386719 272.867188 C 207.117188 273.085938 206.828125 273.265625 206.519531 273.417969 C 206.210938 273.566406 205.886719 273.679688 205.554688 273.753906 C 205.21875 273.832031 204.878906 273.871094 204.535156 273.867188 Z M 128.761719 264.808594 L 198.773438 264.808594 L 186.417969 213.816406 L 141.117188 213.816406 Z M 128.761719 264.808594 " fill-opacity="1" fill-rule="nonzero"/><path fill="#f8f8ec" d="M 244.175781 314.753906 L 83.367188 314.753906 C 83.070312 314.753906 82.777344 314.726562 82.484375 314.667969 C 82.191406 314.609375 81.910156 314.523438 81.636719 314.410156 C 81.359375 314.296875 81.097656 314.15625 80.851562 313.992188 C 80.605469 313.824219 80.375 313.636719 80.164062 313.425781 C 79.957031 313.214844 79.769531 312.988281 79.601562 312.742188 C 79.4375 312.492188 79.296875 312.230469 79.183594 311.957031 C 79.070312 311.683594 78.984375 311.398438 78.925781 311.109375 C 78.867188 310.816406 78.839844 310.523438 78.839844 310.222656 C 78.839844 308.738281 78.914062 307.253906 79.0625 305.773438 C 79.210938 304.292969 79.429688 302.824219 79.71875 301.367188 C 80.011719 299.910156 80.371094 298.46875 80.804688 297.046875 C 81.238281 295.625 81.738281 294.226562 82.308594 292.851562 C 82.878906 291.480469 83.511719 290.136719 84.214844 288.824219 C 84.914062 287.515625 85.679688 286.242188 86.507812 285.003906 C 87.332031 283.769531 88.21875 282.574219 89.160156 281.425781 C 90.101562 280.277344 91.101562 279.175781 92.152344 278.125 C 93.203125 277.074219 94.304688 276.074219 95.453125 275.132812 C 96.601562 274.1875 97.792969 273.304688 99.03125 272.476562 C 100.265625 271.648438 101.539062 270.886719 102.847656 270.183594 C 104.160156 269.480469 105.503906 268.847656 106.875 268.277344 C 108.25 267.707031 109.644531 267.203125 111.070312 266.769531 C 112.492188 266.339844 113.929688 265.976562 115.390625 265.683594 C 116.847656 265.390625 118.316406 265.171875 119.796875 265.023438 C 121.273438 264.875 122.757812 264.800781 124.246094 264.800781 L 203.289062 264.800781 C 204.777344 264.800781 206.261719 264.875 207.738281 265.023438 C 209.21875 265.171875 210.6875 265.390625 212.148438 265.679688 C 213.605469 265.972656 215.046875 266.335938 216.46875 266.769531 C 217.890625 267.199219 219.289062 267.703125 220.664062 268.273438 C 222.035156 268.839844 223.378906 269.476562 224.6875 270.179688 C 226 270.878906 227.273438 271.644531 228.511719 272.472656 C 229.746094 273.296875 230.9375 274.183594 232.089844 275.125 C 233.238281 276.070312 234.339844 277.066406 235.390625 278.117188 C 236.441406 279.171875 237.4375 280.269531 238.382812 281.421875 C 239.328125 282.570312 240.210938 283.761719 241.039062 285 C 241.863281 286.234375 242.628906 287.507812 243.328125 288.820312 C 244.03125 290.128906 244.667969 291.472656 245.238281 292.847656 C 245.808594 294.21875 246.308594 295.617188 246.742188 297.039062 C 247.175781 298.464844 247.535156 299.902344 247.828125 301.363281 C 248.117188 302.820312 248.339844 304.289062 248.484375 305.769531 C 248.632812 307.25 248.707031 308.734375 248.710938 310.21875 C 248.710938 310.515625 248.679688 310.8125 248.621094 311.105469 C 248.566406 311.398438 248.480469 311.679688 248.367188 311.957031 C 248.25 312.230469 248.113281 312.492188 247.945312 312.738281 C 247.78125 312.988281 247.59375 313.214844 247.382812 313.425781 C 247.171875 313.636719 246.941406 313.824219 246.695312 313.992188 C 246.449219 314.15625 246.1875 314.296875 245.910156 314.410156 C 245.636719 314.523438 245.351562 314.609375 245.058594 314.667969 C 244.769531 314.726562 244.472656 314.753906 244.175781 314.753906 Z M 88.179688 305.695312 L 239.355469 305.695312 C 239.21875 304.609375 239.03125 303.53125 238.796875 302.460938 C 238.558594 301.390625 238.277344 300.332031 237.945312 299.289062 C 237.613281 298.246094 237.238281 297.21875 236.816406 296.207031 C 236.390625 295.199219 235.921875 294.207031 235.410156 293.242188 C 234.898438 292.273438 234.34375 291.328125 233.746094 290.410156 C 233.144531 289.492188 232.507812 288.605469 231.832031 287.746094 C 231.152344 286.882812 230.4375 286.058594 229.683594 285.261719 C 228.929688 284.464844 228.144531 283.707031 227.324219 282.980469 C 226.5 282.257812 225.648438 281.570312 224.765625 280.921875 C 223.882812 280.273438 222.972656 279.667969 222.03125 279.101562 C 221.09375 278.539062 220.132812 278.015625 219.148438 277.535156 C 218.164062 277.058594 217.160156 276.625 216.132812 276.238281 C 215.109375 275.847656 214.070312 275.507812 213.015625 275.214844 C 211.960938 274.921875 210.894531 274.675781 209.816406 274.476562 C 208.738281 274.277344 207.65625 274.128906 206.5625 274.03125 C 205.472656 273.929688 204.378906 273.878906 203.285156 273.878906 L 124.246094 273.878906 C 123.148438 273.878906 122.058594 273.929688 120.96875 274.03125 C 119.875 274.128906 118.792969 274.277344 117.714844 274.476562 C 116.636719 274.675781 115.574219 274.921875 114.519531 275.214844 C 113.464844 275.507812 112.421875 275.847656 111.398438 276.238281 C 110.375 276.625 109.371094 277.058594 108.386719 277.535156 C 107.402344 278.015625 106.4375 278.535156 105.5 279.101562 C 104.5625 279.667969 103.652344 280.273438 102.769531 280.921875 C 101.886719 281.570312 101.035156 282.253906 100.214844 282.980469 C 99.390625 283.703125 98.605469 284.464844 97.851562 285.257812 C 97.097656 286.054688 96.382812 286.882812 95.707031 287.742188 C 95.027344 288.601562 94.390625 289.488281 93.792969 290.40625 C 93.195312 291.324219 92.640625 292.265625 92.125 293.234375 C 91.613281 294.203125 91.144531 295.191406 90.722656 296.199219 C 90.296875 297.210938 89.921875 298.238281 89.589844 299.28125 C 89.257812 300.324219 88.976562 301.382812 88.738281 302.453125 C 88.503906 303.519531 88.316406 304.597656 88.179688 305.683594 Z M 88.179688 305.695312 " fill-opacity="1" fill-rule="nonzero"/><g clip-path="url(#c8081d81fd)"><path fill="#f8f8ec" d="M 294.1875 213.816406 L 33.347656 213.816406 C 32.417969 213.816406 31.492188 213.769531 30.570312 213.679688 C 29.648438 213.585938 28.730469 213.449219 27.820312 213.269531 C 26.910156 213.085938 26.011719 212.859375 25.125 212.589844 C 24.238281 212.320312 23.363281 212.007812 22.507812 211.652344 C 21.648438 211.296875 20.8125 210.898438 19.996094 210.460938 C 19.175781 210.023438 18.382812 209.546875 17.609375 209.03125 C 16.839844 208.515625 16.09375 207.964844 15.378906 207.375 C 14.660156 206.785156 13.972656 206.164062 13.316406 205.507812 C 12.660156 204.851562 12.039062 204.164062 11.449219 203.449219 C 10.863281 202.730469 10.308594 201.988281 9.792969 201.214844 C 9.277344 200.445312 8.800781 199.648438 8.363281 198.832031 C 7.925781 198.011719 7.53125 197.175781 7.175781 196.320312 C 6.820312 195.460938 6.507812 194.589844 6.234375 193.703125 C 5.964844 192.8125 5.738281 191.914062 5.558594 191.003906 C 5.375 190.097656 5.238281 189.179688 5.148438 188.257812 C 5.054688 187.332031 5.007812 186.40625 5.007812 185.480469 L 5.007812 173.160156 C 5.007812 172.859375 5.039062 172.566406 5.09375 172.273438 C 5.152344 171.984375 5.238281 171.699219 5.351562 171.425781 C 5.46875 171.148438 5.605469 170.890625 5.773438 170.640625 C 5.9375 170.394531 6.125 170.164062 6.335938 169.957031 C 6.546875 169.746094 6.773438 169.558594 7.023438 169.390625 C 7.269531 169.226562 7.53125 169.085938 7.804688 168.972656 C 8.078125 168.859375 8.363281 168.773438 8.65625 168.714844 C 8.945312 168.65625 9.242188 168.628906 9.539062 168.628906 L 317.992188 168.628906 C 318.289062 168.628906 318.582031 168.65625 318.875 168.714844 C 319.167969 168.773438 319.449219 168.859375 319.726562 168.972656 C 320 169.085938 320.261719 169.226562 320.507812 169.390625 C 320.753906 169.558594 320.984375 169.746094 321.195312 169.957031 C 321.40625 170.164062 321.59375 170.394531 321.757812 170.640625 C 321.921875 170.890625 322.0625 171.148438 322.175781 171.425781 C 322.289062 171.699219 322.375 171.984375 322.433594 172.273438 C 322.492188 172.566406 322.519531 172.859375 322.519531 173.160156 L 322.519531 185.480469 C 322.519531 186.40625 322.472656 187.332031 322.382812 188.253906 C 322.289062 189.179688 322.152344 190.09375 321.972656 191.003906 C 321.789062 191.914062 321.5625 192.8125 321.292969 193.699219 C 321.023438 194.589844 320.710938 195.460938 320.355469 196.316406 C 320 197.175781 319.605469 198.011719 319.167969 198.832031 C 318.730469 199.648438 318.253906 200.441406 317.738281 201.214844 C 317.222656 201.984375 316.667969 202.730469 316.082031 203.445312 C 315.492188 204.164062 314.871094 204.851562 314.214844 205.507812 C 313.558594 206.164062 312.871094 206.785156 312.152344 207.375 C 311.4375 207.960938 310.691406 208.515625 309.921875 209.03125 C 309.152344 209.546875 308.355469 210.023438 307.539062 210.460938 C 306.71875 210.898438 305.882812 211.296875 305.027344 211.652344 C 304.167969 212.007812 303.296875 212.320312 302.410156 212.589844 C 301.523438 212.859375 300.625 213.085938 299.714844 213.265625 C 298.804688 213.449219 297.886719 213.585938 296.964844 213.675781 C 296.039062 213.769531 295.117188 213.816406 294.1875 213.816406 Z M 14.078125 177.683594 L 14.078125 185.46875 C 14.078125 186.101562 14.109375 186.730469 14.171875 187.359375 C 14.230469 187.988281 14.324219 188.613281 14.449219 189.230469 C 14.570312 189.851562 14.722656 190.460938 14.90625 191.066406 C 15.089844 191.671875 15.300781 192.265625 15.542969 192.847656 C 15.785156 193.429688 16.054688 194 16.351562 194.558594 C 16.648438 195.113281 16.972656 195.65625 17.324219 196.179688 C 17.675781 196.707031 18.050781 197.210938 18.449219 197.699219 C 18.851562 198.1875 19.273438 198.65625 19.71875 199.101562 C 20.167969 199.550781 20.632812 199.972656 21.121094 200.375 C 21.609375 200.773438 22.113281 201.148438 22.640625 201.5 C 23.164062 201.851562 23.707031 202.175781 24.261719 202.476562 C 24.816406 202.773438 25.386719 203.042969 25.972656 203.285156 C 26.554688 203.527344 27.148438 203.738281 27.75 203.921875 C 28.355469 204.105469 28.96875 204.261719 29.585938 204.382812 C 30.207031 204.507812 30.828125 204.601562 31.457031 204.664062 C 32.085938 204.726562 32.714844 204.757812 33.347656 204.757812 L 294.1875 204.757812 C 294.820312 204.757812 295.449219 204.726562 296.074219 204.664062 C 296.703125 204.601562 297.328125 204.507812 297.945312 204.382812 C 298.566406 204.261719 299.175781 204.109375 299.78125 203.925781 C 300.382812 203.742188 300.976562 203.527344 301.558594 203.285156 C 302.140625 203.042969 302.710938 202.773438 303.269531 202.476562 C 303.824219 202.179688 304.363281 201.855469 304.890625 201.503906 C 305.414062 201.152344 305.917969 200.777344 306.40625 200.378906 C 306.894531 199.976562 307.363281 199.554688 307.808594 199.109375 C 308.253906 198.664062 308.675781 198.195312 309.078125 197.707031 C 309.476562 197.21875 309.855469 196.714844 310.203125 196.191406 C 310.554688 195.664062 310.878906 195.125 311.175781 194.570312 C 311.472656 194.011719 311.742188 193.441406 311.984375 192.859375 C 312.226562 192.277344 312.441406 191.683594 312.625 191.078125 C 312.808594 190.476562 312.960938 189.863281 313.085938 189.246094 C 313.207031 188.628906 313.300781 188.003906 313.363281 187.375 C 313.425781 186.75 313.457031 186.121094 313.457031 185.488281 L 313.457031 177.683594 Z M 14.078125 177.683594 " fill-opacity="1" fill-rule="nonzero"/></g><path fill="#f8f8ec" d="M 164.425781 109.886719 C 163.644531 109.886719 162.910156 109.699219 162.226562 109.320312 L 100.832031 75.347656 C 100.109375 74.949219 99.535156 74.394531 99.117188 73.683594 C 98.695312 72.972656 98.484375 72.203125 98.484375 71.378906 C 98.484375 70.554688 98.695312 69.785156 99.117188 69.074219 C 99.535156 68.363281 100.109375 67.808594 100.832031 67.410156 L 162.226562 33.4375 C 162.914062 33.050781 163.652344 32.859375 164.441406 32.859375 C 165.230469 32.859375 165.96875 33.050781 166.65625 33.4375 L 226.738281 67.410156 C 227.453125 67.8125 228.015625 68.367188 228.429688 69.074219 C 228.839844 69.777344 229.046875 70.539062 229.046875 71.359375 C 229.046875 72.175781 228.839844 72.9375 228.429688 73.644531 C 228.015625 74.351562 227.453125 74.90625 226.738281 75.308594 L 166.65625 109.28125 C 165.964844 109.679688 165.222656 109.882812 164.425781 109.886719 Z M 112.390625 71.382812 L 164.402344 100.152344 L 215.296875 71.367188 L 164.402344 42.59375 Z M 112.390625 71.382812 " fill-opacity="1" fill-rule="nonzero"/><path fill="#f8f8ec" d="M 164.21875 144.65625 C 155.78125 144.695312 147.425781 143.898438 139.148438 142.261719 C 130.871094 140.628906 122.839844 138.1875 115.050781 134.941406 C 114.636719 134.769531 114.257812 134.539062 113.914062 134.253906 C 113.570312 133.972656 113.273438 133.644531 113.027344 133.269531 C 112.78125 132.898438 112.589844 132.5 112.460938 132.070312 C 112.332031 131.644531 112.269531 131.207031 112.269531 130.761719 L 112.269531 79 C 112.269531 78.800781 112.28125 78.605469 112.304688 78.410156 C 112.332031 78.214844 112.367188 78.023438 112.417969 77.832031 C 112.46875 77.644531 112.53125 77.457031 112.605469 77.277344 C 112.679688 77.09375 112.765625 76.917969 112.863281 76.746094 C 112.960938 76.574219 113.066406 76.410156 113.1875 76.253906 C 113.304688 76.097656 113.433594 75.949219 113.570312 75.808594 C 113.710938 75.667969 113.855469 75.539062 114.011719 75.417969 C 114.167969 75.296875 114.328125 75.1875 114.496094 75.085938 C 114.667969 74.988281 114.84375 74.898438 115.023438 74.820312 C 115.203125 74.746094 115.390625 74.679688 115.578125 74.625 C 115.769531 74.574219 115.960938 74.535156 116.15625 74.503906 C 116.347656 74.476562 116.542969 74.460938 116.742188 74.460938 C 116.9375 74.457031 117.132812 74.46875 117.328125 74.492188 C 117.523438 74.515625 117.71875 74.550781 117.90625 74.597656 C 118.097656 74.644531 118.285156 74.707031 118.46875 74.777344 C 118.652344 74.851562 118.828125 74.933594 119 75.03125 L 164.386719 100.15625 L 209.398438 74.699219 C 209.570312 74.601562 209.75 74.515625 209.933594 74.441406 C 210.113281 74.367188 210.300781 74.304688 210.492188 74.253906 C 210.683594 74.207031 210.878906 74.167969 211.074219 74.144531 C 211.269531 74.117188 211.464844 74.105469 211.664062 74.109375 C 211.863281 74.109375 212.058594 74.125 212.253906 74.152344 C 212.449219 74.175781 212.644531 74.21875 212.832031 74.269531 C 213.023438 74.320312 213.210938 74.386719 213.390625 74.460938 C 213.574219 74.539062 213.75 74.625 213.921875 74.726562 C 214.089844 74.824219 214.253906 74.9375 214.410156 75.058594 C 214.566406 75.179688 214.714844 75.308594 214.855469 75.449219 C 214.992188 75.589844 215.121094 75.738281 215.242188 75.894531 C 215.363281 76.050781 215.472656 76.214844 215.570312 76.386719 C 215.667969 76.558594 215.753906 76.734375 215.828125 76.917969 C 215.902344 77.101562 215.964844 77.289062 216.015625 77.480469 C 216.066406 77.671875 216.105469 77.863281 216.128906 78.058594 C 216.15625 78.253906 216.167969 78.453125 216.167969 78.648438 L 216.167969 130.742188 C 216.167969 131.1875 216.101562 131.625 215.972656 132.054688 C 215.84375 132.480469 215.65625 132.882812 215.410156 133.253906 C 215.160156 133.625 214.867188 133.953125 214.519531 134.238281 C 214.175781 134.523438 213.796875 134.75 213.386719 134.921875 C 205.597656 138.171875 197.566406 140.613281 189.289062 142.253906 C 181.015625 143.890625 172.65625 144.695312 164.21875 144.65625 Z M 121.339844 127.703125 C 124.757812 129.003906 128.226562 130.144531 131.746094 131.128906 C 135.269531 132.113281 138.824219 132.9375 142.421875 133.597656 C 146.015625 134.261719 149.636719 134.757812 153.277344 135.089844 C 156.917969 135.421875 160.566406 135.585938 164.21875 135.585938 C 167.875 135.585938 171.523438 135.421875 175.164062 135.089844 C 178.804688 134.757812 182.421875 134.261719 186.019531 133.597656 C 189.613281 132.9375 193.171875 132.113281 196.691406 131.128906 C 200.214844 130.144531 203.683594 129.003906 207.097656 127.703125 L 207.097656 86.417969 L 166.648438 109.296875 C 165.960938 109.683594 165.222656 109.875 164.433594 109.875 C 163.644531 109.875 162.90625 109.683594 162.21875 109.296875 L 121.339844 86.648438 Z M 121.339844 127.703125 " fill-opacity="1" fill-rule="nonzero"/></g></g></g></svg>