
<svg version="1.0" xmlns="http://www.w3.org/2000/svg"
 width="500.000000pt" height="500.000000pt" viewBox="0 0 500.000000 500.000000"
 preserveAspectRatio="xMidYMid meet">

<g transform="translate(0.000000,500.000000) scale(0.100000,-0.100000)"
fill="#FFFFFF" stroke="none">
<path d="M599 2801 c-14 -5 -35 -13 -47 -20 -25 -13 -296 -332 -320 -376 -20
-39 -20 -121 2 -163 22 -43 362 -326 411 -342 38 -13 102 -8 136 11 26 13 329
377 341 409 13 34 5 113 -16 145 -21 33 -370 323 -403 336 -28 11 -67 11 -104
0z m305 -237 c13 -12 16 -41 16 -154 0 -168 -2 -170 -117 -170 -52 0 -73 -4
-73 -12 0 -31 13 -56 35 -68 24 -13 48 -54 38 -64 -4 -3 -64 -6 -135 -6 -119
0 -128 1 -128 19 0 10 15 32 34 48 19 15 37 40 40 56 l6 27 -75 0 c-119 0
-115 -6 -115 170 0 131 2 150 18 159 10 6 104 11 229 11 179 0 214 -2 227 -16z"/>
<path d="M447 2554 c-4 -4 -7 -58 -7 -121 l0 -113 230 0 231 0 -3 118 -3 117
-221 3 c-121 1 -223 -1 -227 -4z m277 -49 c43 -25 43 -26 38 -73 -2 -26 -9
-52 -14 -58 -14 -19 -74 -26 -118 -14 -39 11 -40 12 -40 55 0 25 -4 45 -10 45
-5 0 -10 4 -10 10 0 9 86 59 103 60 5 0 28 -11 51 -25z"/>
<path d="M631 2491 l-34 -18 37 -23 c37 -22 38 -22 72 -4 19 10 34 21 34 24 0
7 -55 40 -67 40 -4 -1 -23 -9 -42 -19z"/>
<path d="M610 2411 c0 -25 5 -31 31 -36 17 -4 46 -4 65 -1 30 6 34 11 34 36 0
35 -2 36 -36 13 -23 -15 -28 -15 -60 0 l-34 17 0 -29z"/>
<path d="M442 2288 c4 -10 61 -14 231 -16 198 -2 227 0 227 13 0 13 -31 15
-231 15 -180 0 -230 -3 -227 -12z"/>
<path d="M637 2233 c-2 -5 -7 -20 -11 -35 -6 -28 -6 -28 44 -28 52 0 55 4 44
48 -5 17 -14 22 -40 22 -18 0 -35 -3 -37 -7z"/>
<path d="M572 2138 c-7 -7 -12 -16 -12 -20 0 -4 52 -8 115 -8 113 0 115 1 105
20 -10 18 -21 20 -103 20 -59 0 -97 -4 -105 -12z"/>
<path d="M3948 2675 c-107 -29 -203 -111 -252 -215 -78 -165 -27 -372 119
-482 154 -116 383 -100 520 37 26 25 61 76 78 113 29 61 32 75 32 167 0 93 -2
105 -33 165 -17 36 -43 77 -56 92 -101 113 -265 163 -408 123z m64 -217 l32
-52 20 29 c12 15 30 40 42 53 l21 25 36 -22 c21 -12 37 -25 37 -27 0 -3 -23
-38 -51 -80 -43 -63 -50 -79 -43 -102 4 -15 8 -31 8 -37 1 -5 4 -12 7 -15 15
-11 57 -126 50 -133 -5 -5 -26 -7 -47 -5 -36 3 -41 7 -65 57 l-25 53 -30 -56
-29 -56 -52 0 c-29 0 -53 4 -53 10 0 5 25 55 56 110 l56 100 -41 71 c-23 39
-41 74 -41 77 0 6 67 50 78 52 1 0 17 -23 34 -52z"/>
<path d="M1415 2501 l-90 -6 -7 -55 c-4 -30 -10 -121 -14 -202 l-7 -148 52 0
51 0 0 64 c0 72 -1 71 83 81 l57 7 0 44 0 44 -71 0 c-61 0 -70 2 -65 16 3 9 6
24 6 34 0 15 11 19 75 25 41 4 79 13 85 20 6 8 10 29 8 47 -3 38 -8 39 -163
29z"/>
<path d="M1953 2495 c-18 -8 -33 -18 -33 -23 0 -4 20 -64 45 -132 36 -98 45
-137 45 -187 l0 -64 48 3 47 3 5 65 c4 48 19 100 59 198 30 72 52 134 50 136
-2 2 -23 6 -46 9 l-41 5 -33 -79 c-18 -43 -34 -78 -35 -76 -1 1 -16 36 -32 77
-16 41 -33 75 -38 77 -5 1 -24 -4 -41 -12z m247 -15 c11 -8 7 -9 -15 -4 -37 8
-45 14 -19 14 10 0 26 -5 34 -10z m-103 -322 c-2 -18 -4 -6 -4 27 0 33 2 48 4
33 2 -15 2 -42 0 -60z"/>
<path d="M2688 2500 c-48 -9 -73 -32 -94 -85 -24 -64 -7 -106 61 -151 60 -40
73 -61 51 -82 -13 -13 -20 -13 -58 1 -24 10 -47 17 -51 17 -6 0 -37 -53 -37
-63 0 -14 92 -42 136 -42 65 0 103 26 124 83 13 37 12 45 -2 76 -9 19 -29 42
-44 53 -38 26 -84 70 -84 80 0 5 7 18 15 29 13 16 16 17 25 4 5 -8 10 -25 10
-37 0 -20 5 -23 45 -23 l45 0 0 44 c0 77 -53 112 -142 96z"/>
<path d="M3406 2438 c-17 -40 -37 -84 -43 -98 -9 -23 -12 -18 -37 63 -15 48
-30 87 -34 88 -4 0 -28 2 -53 3 l-47 1 -7 -127 c-4 -70 -4 -146 0 -168 5 -27
3 -40 -5 -40 -7 0 -10 -13 -8 -32 3 -32 4 -33 53 -33 l50 0 5 65 5 65 16 -45
c12 -36 21 -46 42 -48 22 -3 30 4 51 45 l25 48 1 -68 0 -68 53 3 52 3 2 175
c3 183 -5 227 -40 224 -9 -1 -14 2 -11 7 3 5 -4 9 -16 9 -17 0 -28 -16 -54
-72z"/>
</g>
</svg>
